<svg width="419" height="64" viewBox="0 0 419 64" fill="none" xmlns="http://www.w3.org/2000/svg">
<path d="M418.521 21.2363H406.206V15.7091C406.206 13.8666 406.109 12.5091 405.721 11.8303C405.527 11.1515 404.946 10.7636 404.17 10.7636C403.394 10.7636 402.909 11.1515 402.618 11.7333C402.424 12.3151 402.23 13.5757 402.23 15.7091V38.0121C402.23 39.6606 402.424 40.9212 402.812 41.7939C403.2 42.5697 403.782 43.0545 404.558 43.0545C405.334 43.0545 406.012 42.5697 406.303 41.7939C406.691 41.0182 406.788 39.2727 406.788 36.7515V31.1273H418.424C418.424 34.9091 418.327 37.8182 418.037 39.6606C417.843 41.503 417.067 43.5394 415.903 45.4788C414.74 47.4182 413.091 48.9697 411.055 49.9394C409.018 51.0061 406.691 51.4909 403.782 51.4909C400.097 51.4909 397.188 50.8121 394.958 49.3576C392.824 48 391.273 45.9636 390.4 43.5394C389.431 41.1151 389.14 37.4303 389.14 32.8727V19.5879C389.14 15.5151 389.527 12.5091 390.206 10.4727C390.885 8.33937 392.534 6.59392 394.861 4.94543C397.188 3.29694 400.097 2.52119 403.588 2.52119C407.079 2.52119 409.891 3.29694 412.315 4.94543C414.74 6.59392 416.291 8.53331 417.164 11.0545C418.134 13.3818 418.521 16.7757 418.521 21.2363Z" fill="#0033CC"/>
<path d="M390.206 27.9273V21.6242C390.206 17.0666 389.721 13.4788 388.752 10.9576C387.782 8.43634 386.133 6.39998 383.806 4.84846C381.576 3.49088 378.667 2.61816 375.273 2.52119H374.788C371.879 2.52119 369.164 3.10301 366.836 4.36361C364.509 5.62422 362.861 7.56361 361.891 9.89089C360.921 12.2182 360.34 15.5151 360.34 19.6848V33.4545C360.34 36.9454 360.533 39.6606 361.018 41.503C361.503 43.3454 362.279 44.9939 363.443 46.5454C364.606 48.097 366.255 49.3576 368.388 50.1333C370.424 50.9091 372.752 51.3939 375.273 51.3939C375.37 51.3939 375.467 51.3939 375.661 51.3939C378.473 51.3939 380.8 50.9091 382.74 50.0364C384.582 49.0667 386.133 47.806 387.394 46.0606C388.655 44.3151 389.43 42.6667 389.721 41.0182C390.109 39.3697 390.206 37.1394 390.206 34.2303V30.7394H377.794V37.0424C377.794 39.3697 377.697 41.0182 377.309 41.7939C376.921 42.5697 376.243 43.0545 375.273 43.0545V43.0545C374.594 43.0545 374.109 42.6667 373.721 42.0848C373.527 41.503 373.333 40.1454 373.333 38.0121V27.9273H390.206ZM373.333 16.7757C373.333 14.0606 373.43 12.4121 373.721 11.8303C373.915 11.2485 374.4 10.8606 375.37 10.8606H375.467C376.146 10.8606 376.63 11.2485 376.921 11.9273C377.115 12.606 377.309 14.2545 377.309 16.6788V20.0727H375.273H373.43V16.6788H373.333V16.7757Z" fill="#0033CC"/>
<path d="M361.018 18.5212H349.479V16C349.479 13.7697 349.382 12.4121 349.091 11.8303C348.897 11.2485 348.412 10.8606 347.443 10.8606C346.764 10.8606 346.182 11.0545 345.794 11.6364C345.406 12.2182 345.212 12.897 345.212 14.0606C345.212 15.4182 345.309 16.5818 345.406 17.2606C345.6 17.9394 346.085 18.6182 347.055 19.4909C348.024 20.2667 349.867 21.4303 352.679 22.9818C356.461 25.1152 358.885 26.9576 360.049 28.703C361.212 30.5455 361.794 33.1636 361.794 36.6546C361.794 40.5333 361.309 43.4424 360.534 45.3818C359.564 47.3212 358.109 48.8727 355.976 49.9394C353.843 51.0061 351.321 51.5879 348.315 51.5879C345.018 51.5879 342.206 51.0061 339.879 49.8424C337.552 48.6788 335.903 47.1273 335.03 45.1879C334.061 43.2485 333.77 40.2424 333.77 36.2667V34.0364H345.309V36.9455C345.309 39.4667 345.406 41.1152 345.794 41.8909C345.988 42.5697 346.57 43.0546 347.54 43.0546C348.509 43.0546 349.091 42.8606 349.382 42.3758C349.77 41.8909 349.964 40.7273 349.964 39.0788C349.964 36.8485 349.77 35.4909 349.285 34.9091C348.8 34.3273 346.279 32.6788 341.624 29.7697C337.746 27.4424 335.515 25.2121 334.74 23.3697C333.964 21.4303 333.479 19.2 333.479 16.4849C333.479 12.703 333.964 9.98788 334.933 8.04848C335.903 6.30303 337.358 4.84848 339.491 3.97576C341.624 3.10303 344.146 2.42424 346.958 2.42424C349.77 2.42424 352.194 2.90909 354.23 3.58788C356.267 4.36363 357.721 5.4303 358.788 6.78788C359.855 8.04848 360.534 9.30909 360.824 10.3758C361.018 11.5394 361.212 13.2849 361.212 15.6121V18.5212H361.018V18.5212Z" fill="#0033CC"/>
<path d="M333.867 11.5394C333.382 9.1152 332.121 6.8849 329.891 5.23642C327.661 3.49096 324.364 2.7152 319.903 2.7152H319.418C315.927 2.81217 313.115 3.49096 310.885 4.94551C308.558 6.49702 307.006 8.24248 306.327 10.1819C305.649 12.1213 305.164 14.9334 305.164 18.6182V21.8182H317.382V16.8728C317.382 14.1576 317.479 12.5091 317.77 11.9273C317.964 11.3455 318.449 10.9576 319.418 10.9576H319.515C320.194 10.9576 320.776 11.3455 321.067 12.0243C321.455 12.7031 321.552 14.3516 321.552 16.7758C321.552 18.7152 321.455 20.0728 321.067 20.7516C320.97 21.1395 320.388 21.4304 319.418 22.0122C318.255 22.691 316.509 23.5637 314.182 24.5334C310.206 26.2788 307.685 27.7334 306.715 28.994C305.649 30.2546 305.164 32.7758 305.164 36.2667V40.1455C305.164 44.897 306.133 48.097 307.976 49.4546C309.818 50.8122 311.952 51.5879 314.182 51.5879C315.927 51.5879 317.479 51.1031 318.642 50.3273C318.836 50.2304 319.127 49.9395 319.321 49.8425C320.291 49.0667 321.067 47.9031 321.745 46.5455V50.7152H334.449V26.9576C334.545 19.1031 334.352 13.9637 333.867 11.5394ZM321.552 37.9152C321.552 40.2425 321.455 41.794 321.164 42.3758C320.97 42.9576 320.485 43.1516 319.515 43.1516H319.418C318.642 43.1516 317.964 42.7637 317.77 42.0849C317.576 41.4061 317.285 39.8546 317.285 37.3334C317.285 35.2001 317.382 33.5516 317.77 32.3879C317.964 31.7092 318.449 30.8364 319.321 29.9637C319.903 29.3819 320.582 28.8001 321.455 28.1213V37.9152H321.552Z" fill="#0033CC"/>
<path d="M293.333 27.1024L279.758 50.3273H267.636L281.212 27.1024L273.649 14.1996H258.618L251.733 26.051L251.152 27.1024L248.146 32.2635H242.036L239.03 27.1024L252.606 3.78185H279.758L293.333 27.1024Z" fill="#0033CC"/>
<path d="M272.426 27.1024L258.85 50.3273H231.698L218.122 27.1024L231.698 3.78185H243.819L230.244 27.1024L237.71 39.9095H252.741L259.722 28.0581L260.304 27.1024V27.0068L263.31 21.8457H269.323L272.426 27.1024Z" fill="#0033CC"/>
<path d="M121.406 64C124.191 64 126.449 61.7424 126.449 58.9576C126.449 56.1727 124.191 53.9151 121.406 53.9151C118.621 53.9151 116.364 56.1727 116.364 58.9576C116.364 61.7424 118.621 64 121.406 64Z" fill="#0033CC"/>
<path d="M104.339 64C107.124 64 109.382 61.7424 109.382 58.9576C109.382 56.1727 107.124 53.9151 104.339 53.9151C101.554 53.9151 99.2969 56.1727 99.2969 58.9576C99.2969 61.7424 101.554 64 104.339 64Z" fill="#0033CC"/>
<path d="M208.485 14.5455C206.836 14.5455 205.576 15.8061 205.576 17.5516V50.7152H193.842V16.9697V2.23035C197.139 7.85459 202.376 12.1213 208.485 14.5455Z" fill="#0033CC"/>
<path d="M189.479 50.7152H31.0303H0L23.9515 35.9758H95.7091V34.8121C95.7091 33.7455 95.0303 32.8727 94.0606 32.4849C93.8667 32.3879 93.5758 32.3879 93.2849 32.3879H29.6727L83.0061 0L59.5394 22.1091H97.2606C98.5212 22.1091 99.8788 22.303 101.042 22.7879C104.921 24.3394 107.636 28.0243 107.636 32.3879V35.9758H117.915V29.5758C117.915 27.9273 116.655 26.6667 115.006 26.6667C121.212 24.3394 126.352 19.8788 129.842 14.2546V36.0727H145.746V35.4909C145.746 33.8424 144.485 32.5818 142.836 32.5818C149.042 30.2546 154.182 25.7939 157.673 20.1697V36.1697H161.939V30.3515C161.939 28.703 160.679 27.4424 159.03 27.4424C165.236 25.1152 170.376 20.6546 173.867 15.0303V29.7697V36.1697H178.133V25.2121C178.133 23.5636 176.873 22.303 175.224 22.303C181.43 19.9758 186.57 15.5152 190.061 9.89091L189.479 50.7152Z" fill="#0033CC"/>
</svg>
